<svg xmlns="http://www.w3.org/2000/svg" xmlns:xlink="http://www.w3.org/1999/xlink" version="1.1" x="0px" y="0px" viewBox="0 0 100 125" style="enable-background:new 0 0 100 100;" xml:space="preserve"><g><path d="M89.041,27.669c-0.302-0.528-0.595-1.061-0.92-1.576c0-0.001-0.001-0.001-0.002-0.002   C82.03,16.377,72.598,9.424,61.559,6.506c-0.005-0.002-0.011-0.003-0.016-0.005c-0.013-0.004-0.027-0.008-0.04-0.012   C54.026,4.513,45.971,4.514,38.5,6.489c-0.014,0.004-0.027,0.008-0.041,0.012c-0.008,0.002-0.015,0.004-0.022,0.006   C27.424,9.421,18.015,16.348,11.926,26.02c-0.003,0.004-0.006,0.009-0.009,0.013c-0.013,0.02-0.026,0.039-0.039,0.059   c-4.213,6.701-6.582,14.432-6.847,22.339c0,0.005,0,0.009,0,0.014c0,0.002,0,0.003,0,0.005C5.01,48.966,5,49.483,5,50   c0,10.044,3.388,19.852,9.558,27.724l0.524,0.665c0.001,0.001,0.002,0.003,0.003,0.004l0.036,0.046   c5.143,6.296,11.881,11.088,19.486,13.856C39.528,94.09,44.707,95,50,95s10.472-0.91,15.391-2.705   c2.853-1.038,5.583-2.361,8.153-3.941c3.427-2.106,6.568-4.67,9.333-7.626c0.691-0.739,1.359-1.503,2.002-2.29c0,0,0,0,0-0.001   C91.406,70.451,95,60.351,95,50c0-0.523-0.01-1.046-0.031-1.55C94.724,41.133,92.666,33.993,89.041,27.669z M51.5,21.951   l11.663-8.478c0.352-0.256,0.617-0.593,0.792-0.969c7.096,2.628,13.269,7.21,17.865,13.261c-0.225,0.253-0.407,0.549-0.516,0.885   l-4.432,13.631l-13.676,3.926c-0.012-0.009-0.022-0.021-0.035-0.03L51.5,35.706V21.951z M36.046,12.504   c0.175,0.376,0.44,0.713,0.792,0.969L48.5,21.951v13.755l-11.661,8.472c-0.013,0.009-0.023,0.021-0.035,0.03l-13.676-3.926   L18.697,26.65c-0.109-0.337-0.291-0.633-0.516-0.885C22.775,19.715,28.948,15.133,36.046,12.504z M17.497,73.02   c-0.063,0-0.124,0.01-0.187,0.015c-4.349-6.167-6.881-13.496-7.256-21.063c0.178-0.074,0.352-0.162,0.513-0.279l11.692-8.5   c0.012-0.009,0.022-0.02,0.034-0.029l13.676,3.926l4.414,13.585L31.358,73.02H17.497z M61.242,88.388C57.61,89.452,53.841,90,50,90   c-3.841,0-7.609-0.548-11.242-1.612L34.32,74.747c-0.05-0.152-0.117-0.295-0.192-0.432l8.677-11.87h14.304l8.4,12.396   c0.03,0.044,0.069,0.077,0.103,0.117L61.242,88.388z M82.696,73.035c-0.064-0.005-0.128-0.015-0.193-0.015H68.058   c-0.051,0-0.101,0.009-0.152,0.012l-8.318-12.276c0.005-0.013,0.012-0.025,0.016-0.039l4.428-13.628l13.676-3.926   c0.012,0.009,0.022,0.02,0.034,0.029l11.692,8.5c0.161,0.117,0.335,0.205,0.513,0.279C89.571,59.54,87.042,66.869,82.696,73.035z"/></g><text x="0" y="115" fill="#000000" font-size="5px" font-weight="bold" font-family="'Helvetica Neue', Helvetica, Arial-Unicode, Arial, Sans-serif">Created by Maxim Kulikov</text><text x="0" y="120" fill="#000000" font-size="5px" font-weight="bold" font-family="'Helvetica Neue', Helvetica, Arial-Unicode, Arial, Sans-serif">from the Noun Project</text></svg>