<?xml version="1.0" encoding="utf-8"?>
<!-- Generator: Adobe Illustrator 23.0.3, SVG Export Plug-In . SVG Version: 6.00 Build 0)  -->
<svg version="1.1" id="Capa_1" xmlns="http://www.w3.org/2000/svg" xmlns:xlink="http://www.w3.org/1999/xlink" x="0px" y="0px"
	 viewBox="0 0 100 125" style="enable-background:new 0 0 100 125;" xml:space="preserve">
<style type="text/css">
	.st0{fill:#D82323;}
</style>
<path class="st0" d="M18,91.4h63.8c10.5,0,17.1-11.5,11.9-20.5l-32-55.4c-5.2-9.2-18.4-9.2-23.6,0l-32,55.4C1,80,7.5,91.4,18,91.4z
	 M50,79.1c-2.8,0-5.1-2.3-5.1-5.1s2.3-5.1,5.1-5.1s5.1,2.3,5,5.2C55.1,76.8,52.7,79.1,50,79.1z M48.7,33.1c2.4-0.6,4.9,0.6,5.9,2.9
	c0.3,0.8,0.5,1.6,0.5,2.5c-0.1,2.5-0.3,5.1-0.5,7.6c-0.2,3.9-0.5,7.9-0.7,11.8c-0.1,1.3-0.1,2.4-0.1,3.7c-0.1,2.1-1.7,3.7-3.8,3.7
	s-3.7-1.5-3.8-3.6c-0.3-6.1-0.7-12.2-1-18.3c-0.1-1.6-0.2-3.2-0.3-4.9C44.8,36,46.3,33.8,48.7,33.1z"/>
</svg>
