<svg xmlns="http://www.w3.org/2000/svg" xmlns:xlink="http://www.w3.org/1999/xlink" version="1.1" x="0px" y="0px" viewBox="0 0 100 125" enable-background="new 0 0 100 100" xml:space="preserve"><path d="M18,91.4h63.8c10.5,0,17.1-11.5,11.9-20.5l-32-55.4c-5.2-9.2-18.4-9.2-23.6,0l-32,55.4C1,80,7.5,91.4,18,91.4z M50,79.1  c-2.8,0-5.1-2.3-5.1-5.1s2.3-5.1,5.1-5.1s5.1,2.3,5,5.2C55.1,76.8,52.7,79.1,50,79.1z M48.7,33.1c2.4-0.6,4.9,0.6,5.9,2.9  c0.3,0.8,0.5,1.6,0.5,2.5c-0.1,2.5-0.3,5.1-0.5,7.6c-0.2,3.9-0.5,7.9-0.7,11.8c-0.1,1.3-0.1,2.4-0.1,3.7c-0.1,2.1-1.7,3.7-3.8,3.7  c-2.1,0-3.7-1.5-3.8-3.6c-0.3-6.1-0.7-12.2-1-18.3c-0.1-1.6-0.2-3.2-0.3-4.9C44.8,36,46.3,33.8,48.7,33.1z"/><text x="0" y="115" fill="#000000" font-size="5px" font-weight="bold" font-family="'Helvetica Neue', Helvetica, Arial-Unicode, Arial, Sans-serif">Created by Gregor Cresnar</text><text x="0" y="120" fill="#000000" font-size="5px" font-weight="bold" font-family="'Helvetica Neue', Helvetica, Arial-Unicode, Arial, Sans-serif">from the Noun Project</text></svg>